<svg xmlns="http://www.w3.org/2000/svg" width="100" height="100" fill="none" viewBox="0 0 100 100">
  <path fill="#97CEC8" d="M75.144 89.043H25.239c-.945 0-1.707-.77-1.707-1.714V12.854c0-.945.762-1.71 1.707-1.71h49.905c.945 0 1.716.765 1.716 1.71v74.475c0 .943-.771 1.714-1.716 1.714z"/>
  <path fill="#606161" d="M25.24 89.041a1.713 1.713 0 01-1.711-1.71V12.856c0-.944.767-1.713 1.711-1.713h49.904c.945 0 1.712.77 1.712 1.712V87.33c0 .944-.767 1.711-1.712 1.711H25.24zM81 87.331V12.856A5.863 5.863 0 0075.144 7H25.24a5.862 5.862 0 00-5.854 5.855V87.33a5.862 5.862 0 005.854 5.856h49.904A5.863 5.863 0 0081 87.33z"/>
  <path fill="#4F4F4F" d="M21.08 53.134v-6.023c0-.395.32-.717.717-.717h.014c.397 0 .718.322.718.718v6.022c0 .398-.32.718-.718.718h-.014a.717.717 0 01-.718-.718z"/>
  <path fill="#C0E5E2" d="M76.86 61.662l-.004 7.874-53.324-28.938V12.854c0-.945.762-1.71 1.707-1.71h9.72l41.9 50.518z"/>
  <path fill="#F04B48" d="M50.27 92.26a1.443 1.443 0 010-2.884c.797 0 1.444.646 1.444 1.442 0 .796-.647 1.442-1.443 1.442z"/>
  <g>
    <path fill="#fff" d="M65 35.205L49.795 20 34.59 35.205h10.177v29.59H34.59L49.795 80 65 64.795H54.823v-29.59H65z"/>
  </g>
</svg>
