<svg xmlns="http://www.w3.org/2000/svg" width="100" height="100" fill="none" viewBox="0 0 100 100">
  <path fill="#AED0D7" d="M82.888 87.662H17.075a4.703 4.703 0 01-4.7-4.7V17.15c0-2.594 2.106-4.7 4.7-4.7h65.813c2.593 0 4.7 2.106 4.7 4.7v65.813a4.695 4.695 0 01-4.7 4.7z"/>
  <path fill="#AED0D7" d="M82.888 87.662H17.075a4.703 4.703 0 01-4.7-4.7V17.15c0-2.594 2.106-4.7 4.7-4.7h65.813c2.593 0 4.7 2.106 4.7 4.7v65.813a4.695 4.695 0 01-4.7 4.7z"/>
  <path fill="url(#paint0_radial_102_100)" d="M12.387 38.95l-.043 14.456 75.25-4.569.1-26.187s-3.494-2.813-8.925-1.162c-5.431 1.65-6.5 4.943-6.5 4.943s-5.407-1.775-11.057.681c-7.375 3.2-10.287 10.082-10.287 10.082s-7.369-2.525-15.712-2.425c-11.807.15-22.826 4.181-22.826 4.181z"/>
  <path fill="url(#paint1_radial_102_100)" d="M36.394 47.125s5.019-2.362 11.856-2.644c4.375-.181 9.575 1.456 9.575 1.456s4.287-2.368 15.231-1.643c10.944.731 14.538 3.019 14.538 3.019l.006 24.525-75.237-2.088.012-22.813s6.244-1.362 14.175-1.093c6.194.218 9.844 1.281 9.844 1.281z"/>
  <path fill="#B11F2B" d="M87.606 48.656c-.168-.081-4.143-1.956-6.831-3.712-2.388-1.556-7.331-5.419-13.413-11.181-4.95-4.694-9.074-11.607-9.25-11.9L59.4 21.1c.044.069 4.2 7.031 8.994 11.575 6.006 5.694 10.862 9.488 13.2 11.013 2.6 1.693 5.956 3.25 5.994 3.268l.018 1.7zM76.263 72.25l-1.25-.013.174-31.993 1.25.012-.174 31.994z"/>
  <path fill="#B11F2B" d="M79.778 66.59l.063-32.668 1.25.002-.063 32.67-1.25-.003zM84.485 59.363l.063-12.725 1.25.006-.063 12.725-1.25-.006zM30.164 67.835l.23-11.216 1.25.025-.23 11.217-1.25-.026zM23.365 67.313l.35-17.084 1.25.025-.35 17.085-1.25-.026zM37.281 71.463l-1.25-.013.232-28.069 1.25.013-.232 28.069zM43.612 75.006l-1.25-.012.113-24.757 1.25.013-.113 24.756zM48.131 33.469h1.25v43.494h-1.25V33.469zM53.247 42.077l1.25-.003.081 31.169-1.25.003-.081-31.17z"/>
  <path fill="#FF2D26" d="M87.612 40.519c-.037-.025-4.174-3.088-7.93-6.325-2.526-2.175-5.42-5.15-7.038-7-2.694-3.075-4.3-5.425-4.369-5.525l1.244-.844c.018.025 1.625 2.381 4.256 5.381 1.587 1.806 4.419 4.725 6.887 6.85a123.342 123.342 0 006.963 5.569l-.013 1.894z"/>
  <path fill="#B01522" d="M59.019 20.637s2.937-.08 2.956-.024c.075.268.112 49.075.112 49.075l-4.943 2.006 1.875-51.056zM68.381 20.706s2.582-.043 2.632 0c.262.2.174 15.763.174 15.763h.52V71.18l-3.07-3.243-.256-47.232z"/>
  <path fill="#FF2D26" d="M69.912 36.581h-.868L69.019 20.7l-2.644-.037-.013 1.737s-.987.994-3.13 1.056c-2.145.056-3.013-1.331-3.013-1.331l-.019-1.5-3.225.025-.038 15.931-.612.038.031 4.544v26.775l.056 10.424 4-3.068-.056-21.088 5.681-.056v19.475l3.882.175V36.581h-.007zm-9.73-8.456c.118-.231 6.087-.056 6.087-.056l-.056 8.518h-6.025v-8.462h-.007zm6.024 21.381h-6.025v-8.343h6.025v8.343z"/>
  <path fill="#DD0C29" d="M69.375 20.681s.2-2.018-1.031-2c-1.144.013-.906 2.025-.906 2.025s.487.013 1.037 0c.625-.012.9-.025.9-.025zM59.675 18.65c-1.112.013-.931 2.013-.931 2.013s.506-.013.987-.013c.475 0 .931-.025.931-.025s.2-1.988-.987-1.975z"/>
  <path fill="#FF2D26" d="M12.363 62.75l.018-1.581c.038-.006 5.513-.906 7.188-1.463.194-.062.525-.156.969-.287 3.618-1.031 14.63-4.169 26.906-12.694 13.518-9.388 19.418-25.106 19.481-25.263l1.406.52c-.056.162-6.112 16.312-20.031 25.98-12.481 8.663-23.675 11.85-27.356 12.894-.419.119-.719.206-.906.269-1.77.594-7.52 1.594-7.675 1.625z"/>
  <path fill="#B11F2B" d="M12.35 54.288v-1.47c.106 0 9.813-.105 24.45-10.45 5.419-3.824 12.869-10.468 15.95-14.212 3.525-4.287 3.681-5.331 4.15-6.418 0 0 .194-.97.731-1.088.132-.031 1.069-.019 1.069-.019-.1.344-1.125 4.019-4.788 8.475-3.143 3.825-10.737 10.6-16.237 14.488C22.6 54.244 12.806 54.288 12.35 54.288z"/>
  <path fill="url(#paint2_radial_102_100)" d="M82.888 87.662H17.075a4.702 4.702 0 01-4.7-4.7V17.15c0-2.594 2.106-4.7 4.7-4.7h65.813c2.593 0 4.7 2.106 4.7 4.7v65.813a4.694 4.694 0 01-4.7 4.7z"/>
  <path fill="url(#paint3_radial_102_100)" d="M72.2 87.662H17.075a4.703 4.703 0 01-4.7-4.7l-.025-25.256s3.888-2.356 10.425-.519c6.538 1.832 10.319 7.563 10.319 7.563s4.393-3.731 11.694-1.95c9.406 2.294 14.68 13.875 14.68 13.875L72.2 87.662z"/>
  <path fill="url(#paint4_radial_102_100)" d="M87.594 55.756v27.207c0 2.593-2.106 4.7-4.7 4.7H30.706S33.288 77.33 43.381 71.23c8.856-5.356 15.169-3.387 15.169-3.387s5.894-10.013 15.025-12.519c9.131-2.506 14.019.431 14.019.431z"/>
  <defs>
    <radialGradient id="paint0_radial_102_100" cx="0" cy="0" r="1" gradientTransform="rotate(-92 68.31 12.049) scale(63.6537 121.34)" gradientUnits="userSpaceOnUse">
      <stop offset=".553" stop-color="#92BDCC"/>
      <stop offset=".622" stop-color="#B9D5DE"/>
      <stop offset=".732" stop-color="#fff"/>
    </radialGradient>
    <radialGradient id="paint1_radial_102_100" cx="0" cy="0" r="1" gradientTransform="rotate(-83.697 80.053 19.838) scale(53.9994 103.658)" gradientUnits="userSpaceOnUse">
      <stop offset=".593" stop-color="#A1C3CE"/>
      <stop offset=".61" stop-color="#A8C8D2"/>
      <stop offset=".708" stop-color="#CEE0E5"/>
      <stop offset=".799" stop-color="#E9F1F3"/>
      <stop offset=".879" stop-color="#F9FBFC"/>
      <stop offset=".94" stop-color="#fff"/>
    </radialGradient>
    <radialGradient id="paint2_radial_102_100" cx="0" cy="0" r="1" gradientTransform="rotate(-90.439 77.742 25.347) scale(84.9337 176.263)" gradientUnits="userSpaceOnUse">
      <stop offset=".131" stop-color="#fff"/>
      <stop offset=".848" stop-color="#fff" stop-opacity="0"/>
    </radialGradient>
    <radialGradient id="paint3_radial_102_100" cx="0" cy="0" r="1" gradientTransform="rotate(-80.561 64.665 33.44) scale(51.0239 69.6954)" gradientUnits="userSpaceOnUse">
      <stop offset=".158" stop-color="#C0D0D5"/>
      <stop offset=".578" stop-color="#FAFBFB"/>
      <stop offset="1" stop-color="#FAFBFB" stop-opacity="0"/>
    </radialGradient>
    <radialGradient id="paint4_radial_102_100" cx="0" cy="0" r="1" gradientTransform="translate(54.096 42.02) scale(49.9075)" gradientUnits="userSpaceOnUse">
      <stop offset=".052" stop-color="#FAFBFB" stop-opacity="0"/>
      <stop offset=".571" stop-color="#FAFBFB"/>
      <stop offset=".718" stop-color="#EEF2F3"/>
      <stop offset=".919" stop-color="#D6E1E3"/>
    </radialGradient>
  </defs>
</svg>
