<svg xmlns="http://www.w3.org/2000/svg" width="100" height="100" fill="none" viewBox="0 0 100 100">
  <g clip-path="url(#clip0_102_42)">
    <path fill="#D5E2DD" d="M100 29.97L50.928 6.43 20.996 68.82l49.071 23.542L100 29.971z"/>
    <path fill="#373737" d="M93.754 33.067l-41.332-19.83-19.404 40.448 41.331 19.829 19.405-40.447z"/>
    <path fill="#CDD1CF" d="M85.623 27.115L33.288 12.169l-19.002 66.54L66.62 93.654l19.003-66.54z"/>
    <path fill="#373737" d="M79.987 31.218l-44.08-12.589L23.59 61.765l44.079 12.589 12.319-43.136z"/>
    <g>
      <path fill="#D5E2DD" d="M68.79 23.698H14.364v69.2H68.79v-69.2z"/>
      <path fill="#373737" d="M64.498 29.19H18.656v44.862h45.842V29.19z"/>
    </g>
    <g>
      <path fill="#fff" d="M33.8 37.672V59h-4.937V43.238L24 44.66v-3.75l9.346-3.237h.454zM40.685 56.685c0-.703.253-1.288.761-1.757.508-.479 1.162-.718 1.963-.718.81 0 1.465.24 1.963.718.508.469.762 1.054.762 1.758 0 .703-.254 1.294-.762 1.772-.498.469-1.152.703-1.963.703-.8 0-1.455-.234-1.963-.703a2.338 2.338 0 01-.761-1.773zm0-11.689c0-.703.253-1.289.761-1.758.508-.478 1.162-.718 1.963-.718.81 0 1.465.24 1.963.718.508.469.762 1.055.762 1.758 0 .703-.254 1.294-.762 1.773-.498.468-1.152.703-1.963.703-.8 0-1.455-.235-1.963-.703a2.339 2.339 0 01-.761-1.773zM60.226 37.672V59h-4.937V43.238l-4.863 1.421v-3.75l9.346-3.237h.454z"/>
    </g>
  </g>
  <defs>
    <clipPath id="clip0_102_42">
      <path fill="#fff" d="M0 0h100v100H0z"/>
    </clipPath>
  </defs>
</svg>
