<svg xmlns="http://www.w3.org/2000/svg" width="100" height="100" fill="none" viewBox="0 0 100 100">
  <g clip-path="url(#clip0_102_98)">
    <path fill="#CDD7D6" d="M5 31.33v37.125C5 71.523 7.498 74 10.585 74h78.822C92.5 74 95 71.523 95 68.455V31.33c0-3.066-2.5-5.544-5.593-5.544H10.585C7.498 25.786 5 28.264 5 31.33z"/>
    <path fill="#606161" d="M90.493 48.023a1.88 1.88 0 011.887 1.87c0 1.035-.846 1.87-1.887 1.87a1.877 1.877 0 01-1.887-1.87c0-1.033.844-1.87 1.887-1.87zM6.429 41.164c.29 0 .525.235.525.52v16.418c0 .287-.236.52-.525.52a.521.521 0 01-.524-.52V41.684c0-.285.235-.52.524-.52z"/>
    <path fill="#51B2AC" d="M9.99 28.49h75.049c.873 0 1.577.698 1.577 1.554v39.694c0 .864-.704 1.562-1.577 1.562H9.989a1.565 1.565 0 01-1.567-1.562V30.044c0-.615.37-1.155.897-1.397.2-.1.427-.157.67-.157z"/>
    <path fill="#C0E5E2" d="M9.319 28.647L86.616 54.21v15.528L8.422 42.197V30.044c0-.615.37-1.155.897-1.397z"/>
  </g>
  <path fill="#fff" d="M35.205 35L20 50.205 35.205 65.41V55.233h29.59V65.41L80 50.205 64.795 35v10.177h-29.59V35z"/>
  <defs>
    <clipPath id="clip0_102_98">
      <path fill="#fff" d="M0 0h48.214v90H0z" transform="rotate(-90 39.5 34.5)"/>
    </clipPath>
  </defs>
</svg>
